<?xml version="1.0" encoding="UTF-8" standalone="no"?>
<svg
   xmlns:dc="http://purl.org/dc/elements/1.1/"
   xmlns:cc="http://creativecommons.org/ns#"
   xmlns:rdf="http://www.w3.org/1999/02/22-rdf-syntax-ns#"
   xmlns:svg="http://www.w3.org/2000/svg"
   xmlns="http://www.w3.org/2000/svg"
   xmlns:xlink="http://www.w3.org/1999/xlink"
   xmlns:sodipodi="http://sodipodi.sourceforge.net/DTD/sodipodi-0.dtd"
   xmlns:inkscape="http://www.inkscape.org/namespaces/inkscape"
   inkscape:export-ydpi="96"
   inkscape:export-xdpi="96"
   inkscape:export-filename="D:\Pictures\Graphic Design\Gadoop\client\bytes\res\404.png"
   width="656.17413"
   height="800"
   viewBox="0 0 173.61274 211.66667"
   version="1.1"
   id="svg1215"
   inkscape:version="1.0 (4035a4fb49, 2020-05-01)"
   sodipodi:docname="404.svg">
  <defs
     id="defs1209">
    <linearGradient
       id="linearGradient990"
       inkscape:collect="always">
      <stop
         id="stop984"
         offset="0"
         style="stop-color:#0055d4;stop-opacity:1" />
      <stop
         style="stop-color:#2a7fff;stop-opacity:1"
         offset="0.50621068"
         id="stop986" />
      <stop
         id="stop988"
         offset="1"
         style="stop-color:#80b3ff;stop-opacity:1" />
    </linearGradient>
    <filter
       inkscape:collect="always"
       style="color-interpolation-filters:sRGB"
       id="filter2940"
       x="-0.031892855"
       width="1.0637857"
       y="-0.23122323"
       height="1.4624465">
      <feGaussianBlur
         inkscape:collect="always"
         stdDeviation="0.43259241"
         id="feGaussianBlur2942" />
    </filter>
    <linearGradient
       id="linearGradient2990"
       inkscape:collect="always">
      <stop
         id="stop2984"
         offset="0"
         style="stop-color:#5599ff;stop-opacity:1" />
      <stop
         style="stop-color:#0066ff;stop-opacity:1"
         offset="0.50621068"
         id="stop2986" />
      <stop
         id="stop2988"
         offset="1"
         style="stop-color:#0044aa;stop-opacity:1" />
    </linearGradient>
    <filter
       inkscape:collect="always"
       style="color-interpolation-filters:sRGB"
       id="filter3000"
       x="-0.013906706"
       width="1.0278134"
       y="-0.010553097"
       height="1.0211062">
      <feGaussianBlur
         inkscape:collect="always"
         stdDeviation="0.00606935"
         id="feGaussianBlur3002" />
    </filter>
    <linearGradient
       y2="1015.7044"
       x2="914.77002"
       y1="1050.3157"
       x1="928.05334"
       gradientTransform="matrix(2.25016,0,0,2.25016,-1554.2125,-2252.8887)"
       gradientUnits="userSpaceOnUse"
       id="linearGradient959"
       xlink:href="#linearGradient990"
       inkscape:collect="always" />
    <linearGradient
       y2="1027.4968"
       x2="977.95343"
       y1="1026.9531"
       x1="977.09979"
       gradientTransform="matrix(1.2514753,0,0,1.2514753,-248.57311,-259.29383)"
       gradientUnits="userSpaceOnUse"
       id="linearGradient961"
       xlink:href="#linearGradient2990"
       inkscape:collect="always" />
  </defs>
  <sodipodi:namedview
     id="base"
     pagecolor="#ffffff"
     bordercolor="#666666"
     borderopacity="1.0"
     inkscape:pageopacity="0.0"
     inkscape:pageshadow="2"
     inkscape:zoom="0.49497475"
     inkscape:cx="425.41895"
     inkscape:cy="407.18685"
     inkscape:document-units="px"
     inkscape:current-layer="layer1"
     inkscape:document-rotation="0"
     showgrid="false"
     units="px"
     fit-margin-top="0"
     fit-margin-left="0"
     fit-margin-right="0"
     fit-margin-bottom="0"
     inkscape:window-width="1920"
     inkscape:window-height="1017"
     inkscape:window-x="-8"
     inkscape:window-y="32"
     inkscape:window-maximized="1" />
  <metadata
     id="metadata1212">
    <rdf:RDF>
      <cc:Work
         rdf:about="">
        <dc:format>image/svg+xml</dc:format>
        <dc:type
           rdf:resource="http://purl.org/dc/dcmitype/StillImage" />
        <dc:title />
      </cc:Work>
    </rdf:RDF>
  </metadata>
  <g
     inkscape:label="Layer 1"
     inkscape:groupmode="layer"
     id="layer1"
     transform="translate(-199.97478,-18.809771)">
    <g
       transform="translate(-233.59355)"
       id="g1013">
      <path
         inkscape:export-ydpi="98.017883"
         inkscape:export-xdpi="98.017883"
         inkscape:export-filename="D:\Pictures\Graphic Design\Gadoop\client\bytes\res\404.png"
         sodipodi:nodetypes="ccccsccscccsccccscccc"
         d="m 461.78282,183.11693 c 0.0388,0.37217 0.0745,0.7723 0.11262,1.20001 v 0.0276 c 0.31641,3.49791 0.53961,7.73974 0.66979,12.72578 0.0225,0.59546 0.0265,1.18132 0.0265,1.7581 0,4.40938 -0.40932,8.88379 -1.22788,13.42355 -0.79997,4.53946 -2.51171,8.26026 -5.13481,11.16281 -2.21408,2.26973 -4.91172,3.4047 -8.09321,3.4047 -1.50693,0 -3.10707,-0.26057 -4.80002,-0.78159 -2.8652,-0.93005 -5.01414,-2.86509 -6.44673,-5.8046 -1.4325,-2.958 -2.37183,-6.41854 -2.81853,-10.38133 -0.33489,-3.16281 -0.50224,-6.34441 -0.50224,-9.54439 0,-0.83724 0.0276,-2.48363 0.0837,-4.93969 0.0745,-2.45586 0.2331,-5.29307 0.47437,-8.51174 0.37185,-6.25497 10.96678,-8.98242 10.39031,1.9527 -0.20482,3.08828 -0.37227,6.79081 -0.50255,11.10697 -0.0388,1.11638 -0.0562,2.22337 -0.0562,3.32107 0,3.08838 0.15744,6.27917 0.47457,9.57226 0.447,4.97543 2.40062,10.97209 7.36645,6.08365 7.06801,-7.06801 4.66667,-23.92005 3.82239,-35.38702 0,-3.25358 5.91732,-3.43655 6.16145,-0.38819 z"
         style="font-style:normal;font-variant:normal;font-weight:bold;font-stretch:normal;font-size:25.4px;line-height:1.25;font-family:'CHICKEN Pie Height';-inkscape-font-specification:'CHICKEN Pie Height Bold';letter-spacing:0px;word-spacing:0px;display:inline;fill:#1a1a1a;stroke-width:0.595354"
         id="path915" />
      <path
         inkscape:export-ydpi="98.017883"
         inkscape:export-xdpi="98.017883"
         inkscape:export-filename="D:\Pictures\Graphic Design\Gadoop\client\bytes\res\404.png"
         style="display:inline;fill:none;stroke:#1a1a1a;stroke-width:1.19071;stroke-linecap:round;stroke-linejoin:round;stroke-miterlimit:4;stroke-dasharray:none;stroke-opacity:1"
         d="m 487.1036,63.761257 c 0,0 -19.5754,-4.841482 -26.31107,-18.944146"
         id="path917" />
      <path
         inkscape:export-ydpi="98.017883"
         inkscape:export-xdpi="98.017883"
         inkscape:export-filename="D:\Pictures\Graphic Design\Gadoop\client\bytes\res\404.png"
         d="m 520.37466,18.809771 c -24.66028,0 -44.65165,19.991102 -44.65165,44.651522 0,24.660348 44.65165,73.035667 44.65165,73.035667 0,0 44.65156,-48.375319 44.65156,-73.035667 0,-24.66042 -19.99106,-44.651522 -44.65156,-44.651522 z"
         style="display:inline;fill:url(#linearGradient959);fill-opacity:1;stroke:none;stroke-width:1.78607;stroke-linecap:round;stroke-miterlimit:4;stroke-dasharray:none;stop-color:#000000"
         id="path919" />
      <ellipse
         inkscape:export-ydpi="98.017883"
         inkscape:export-xdpi="98.017883"
         inkscape:export-filename="D:\Pictures\Graphic Design\Gadoop\client\bytes\res\404.png"
         transform="matrix(2.2501601,0,0,2.2501601,-2139.5843,-2252.8888)"
         style="display:inline;opacity:0.554839;fill:#000000;stroke-width:1.188;stroke-linecap:square;filter:url(#filter2940);stop-color:#000000"
         id="ellipse921"
         cx="1182.1196"
         cy="1069.3988"
         rx="16.276714"
         ry="2.2450638" />
      <circle
         inkscape:export-ydpi="98.017883"
         inkscape:export-xdpi="98.017883"
         inkscape:export-filename="D:\Pictures\Graphic Design\Gadoop\client\bytes\res\404.png"
         transform="rotate(5.5530742)"
         style="display:inline;fill:#1a1a1a;stroke-width:2.67318;stroke-linecap:square;stop-color:#000000"
         id="circle923"
         cx="497.57727"
         cy="0.35011235"
         r="3.9993043" />
      <circle
         inkscape:export-ydpi="98.017883"
         inkscape:export-xdpi="98.017883"
         inkscape:export-filename="D:\Pictures\Graphic Design\Gadoop\client\bytes\res\404.png"
         transform="rotate(5.5530742)"
         r="3.9993043"
         cy="0.76434088"
         cx="523.48193"
         id="circle925"
         style="display:inline;fill:#1a1a1a;stroke-width:2.67318;stroke-linecap:square;stop-color:#000000" />
      <circle
         inkscape:export-ydpi="98.017883"
         inkscape:export-xdpi="98.017883"
         inkscape:export-filename="D:\Pictures\Graphic Design\Gadoop\client\bytes\res\404.png"
         transform="rotate(5.5530742)"
         style="display:inline;fill:#ffffff;stroke-width:1.12033;stroke-linecap:square;stop-color:#000000"
         id="circle927"
         cx="524.71021"
         cy="-1.038709"
         r="1.6761173" />
      <circle
         inkscape:export-ydpi="98.017883"
         inkscape:export-xdpi="98.017883"
         inkscape:export-filename="D:\Pictures\Graphic Design\Gadoop\client\bytes\res\404.png"
         transform="rotate(5.5530742)"
         r="1.4919388"
         cy="-1.5053471"
         cx="498.59518"
         id="circle929"
         style="display:inline;fill:#ffffff;stroke-width:0.997234;stroke-linecap:square;stop-color:#000000" />
      <path
         inkscape:export-ydpi="98.017883"
         inkscape:export-xdpi="98.017883"
         inkscape:export-filename="D:\Pictures\Graphic Design\Gadoop\client\bytes\res\404.png"
         id="path931"
         d="m 495.7202,58.942666 c 0,0 9.25595,-8.193899 18.15537,2.505113"
         style="display:inline;fill:none;stroke:#1a1a1a;stroke-width:1.19071;stroke-linecap:round;stroke-linejoin:round;stroke-miterlimit:4;stroke-dasharray:none;stroke-opacity:1" />
      <path
         inkscape:export-ydpi="98.017883"
         inkscape:export-xdpi="98.017883"
         inkscape:export-filename="D:\Pictures\Graphic Design\Gadoop\client\bytes\res\404.png"
         transform="matrix(3.5501955,0.34516436,-0.34516436,3.5501955,-2585.2336,-3920.283)"
         id="path933"
         style="display:inline;opacity:0.796774;fill:url(#linearGradient961);fill-opacity:1;stroke:none;stroke-width:0.0209487;stroke-linecap:round;stroke-miterlimit:4;stroke-dasharray:none;filter:url(#filter3000);stop-color:#000000"
         d="m 974.66815,1026.951 c 0.28924,0 0.52372,-0.2344 0.52372,-0.5236 0,-0.2894 -0.52372,-0.8567 -0.52372,-0.8567 0,0 -0.52372,0.5673 -0.52372,0.8567 0,0.2892 0.23448,0.5236 0.52372,0.5236 z" />
      <path
         inkscape:export-ydpi="98.017883"
         inkscape:export-xdpi="98.017883"
         inkscape:export-filename="D:\Pictures\Graphic Design\Gadoop\client\bytes\res\404.png"
         id="path935"
         d="m 544.5806,64.813614 c 0,0 19.5755,-4.841485 26.31127,-18.944098"
         style="display:inline;fill:none;stroke:#1a1a1a;stroke-width:1.19071;stroke-linecap:round;stroke-linejoin:round;stroke-miterlimit:4;stroke-dasharray:none;stroke-opacity:1" />
      <path
         inkscape:export-ydpi="98.017883"
         inkscape:export-xdpi="98.017883"
         inkscape:export-filename="D:\Pictures\Graphic Design\Gadoop\client\bytes\res\404.png"
         sodipodi:nodetypes="cc"
         id="path937"
         d="m 570.89187,45.869516 c 0,0 -1.97332,-1.105285 -1.86805,-4.893871"
         style="display:inline;fill:none;stroke:#1a1a1a;stroke-width:1.19071;stroke-linecap:round;stroke-linejoin:round;stroke-miterlimit:4;stroke-dasharray:none;stroke-opacity:1" />
      <path
         inkscape:export-ydpi="98.017883"
         inkscape:export-xdpi="98.017883"
         inkscape:export-filename="D:\Pictures\Graphic Design\Gadoop\client\bytes\res\404.png"
         sodipodi:nodetypes="ccssccccsscsccccccscccsssscscccccccsscc"
         d="m 496.6675,181.20058 c 2.97668,0.22279 4.61399,1.68387 4.91172,4.38161 0.0388,1.02316 0.0562,2.26043 0.0562,3.71171 0,2.04643 -0.047,5.0418 -0.13947,8.9859 -0.0919,3.92561 -0.25117,5.5815 -0.47457,10.6235 -0.20481,5.02322 -0.40933,8.8839 -0.61384,11.58164 -0.0225,0.83723 -0.37154,1.72083 -1.06053,2.65108 -0.68827,0.91146 -2.03724,1.4232 -4.04671,1.53479 h -0.22279 c -0.63252,0 -1.30231,-0.0919 -2.00916,-0.27894 -0.70695,-0.18685 -1.3116,-0.57677 -1.81394,-1.17213 -0.52103,-0.68837 -0.78149,-1.47915 -0.78149,-2.37224 v -0.25107 c 0.0899,-1.8118 0.16418,-4.14687 0.21819,-7.00542 0,-1.55011 -1.44873,-1.87888 -3.8277,-1.71531 -3.44819,0.31978 -4.2596,0.73922 -4.27777,2.49792 -0.0317,2.92104 -0.0878,5.45102 -0.17786,7.59027 -0.26057,2.8464 -1.48844,4.45573 -3.68394,4.82799 h -1.4232 c -1.11628,0 -2.13026,-0.26985 -3.04183,-0.80946 -1.39522,-0.94884 -2.09309,-2.18601 -2.09309,-3.71162 0,-12.53741 -0.36358,-25.13455 -0.44547,-38.01196 0.0225,-1.8604 0.47386,-3.32107 1.36745,-4.3815 0.89309,-1.06043 2.12097,-1.59065 3.68364,-1.59065 h 0.53022 c 1.06053,0 1.95362,0.18675 2.67925,0.5583 0.72544,0.37195 1.27424,0.81865 1.6464,1.33947 0.79997,1.02327 1.2,2.18611 1.2,3.48842 0,0.14846 0,0.30671 -0.0276,0.47436 -0.11017,1.56278 -0.17552,4.00924 -0.19584,7.3395 -0.0225,3.31158 -0.0276,6.86534 -0.0276,10.66068 0.0694,3.7598 0.97844,3.76746 3.91346,3.76746 3.26533,0 4.34485,-0.53991 4.34536,-5.85116 0,-1.35826 0,-3.36753 -0.0276,-6.028 0,-2.66027 -0.0388,-5.18137 -0.11272,-7.56269 v -0.0837 c 0,-1.32079 0.37206,-2.44636 1.11617,-3.37661 0.96752,-1.2095 2.51182,-1.81415 4.63258,-1.81415 z"
         style="font-style:normal;font-variant:normal;font-weight:bold;font-stretch:normal;font-size:25.4px;line-height:1.25;font-family:'CHICKEN Pie Height';-inkscape-font-specification:'CHICKEN Pie Height Bold';letter-spacing:0px;word-spacing:0px;display:inline;fill:#1a1a1a;stroke-width:0.595354"
         id="path939" />
      <path
         inkscape:export-ydpi="98.017883"
         inkscape:export-xdpi="98.017883"
         inkscape:export-filename="D:\Pictures\Graphic Design\Gadoop\client\bytes\res\404.png"
         d="m 537.86851,180.77185 c -1.95362,0 -3.86976,0.57127 -5.74885,1.71501 -5.39548,3.5991 -8.53042,9.51979 -9.40482,17.76064 -0.13048,1.54736 -0.19583,3.0018 -0.19583,4.36405 0,3.29646 0.38156,6.06333 1.14436,8.30007 1.0976,3.17864 2.39889,5.51617 3.90581,7.01298 2.90245,2.96004 5.97317,4.44062 9.21052,4.44062 h 0.44537 c 3.8326,-0.23565 7.04187,-1.70765 9.62801,-4.41519 2.58614,-2.70765 4.32647,-6.4166 5.21966,-11.12565 0.3548,-1.93412 0.5293,-3.90122 0.5293,-5.90252 0,-1.58074 -0.11027,-3.17057 -0.33377,-4.76847 -0.50245,-3.64953 -1.59208,-6.95437 -3.26645,-9.9142 -1.65559,-2.95963 -3.90622,-5.13757 -6.75242,-6.53351 v 0 c -1.46904,-0.62201 -2.92951,-0.93383 -4.38007,-0.93383 z m 1.06615,7.96978 c 3.73949,0 6.98051,4.61174 6.98051,12.09072 0,7.47897 -3.01129,12.14084 -5.48032,12.80256 -2.46893,0.66132 -7.60823,-2.08226 -7.60823,-13.17585 0,-11.09389 6.10804,-11.71743 6.10804,-11.71743 z"
         style="font-style:normal;font-variant:normal;font-weight:bold;font-stretch:normal;font-size:25.4px;line-height:1.25;font-family:'CHICKEN Pie Height';-inkscape-font-specification:'CHICKEN Pie Height Bold';letter-spacing:0px;word-spacing:0px;display:inline;fill:#1a1a1a;stroke-width:0.566048"
         id="path941" />
      <path
         inkscape:export-ydpi="98.017883"
         inkscape:export-xdpi="98.017883"
         inkscape:export-filename="D:\Pictures\Graphic Design\Gadoop\client\bytes\res\404.png"
         sodipodi:nodetypes="ccccccccccc"
         d="m 606.59408,181.47084 0.58597,32.65151 c 0.11507,4.61879 -9.41769,4.78695 -9.37715,-0.3353 l 0.9766,-32.17704 c 0.0276,-4.18353 7.74689,-4.19741 7.81458,-0.13947 z m 0.0715,44.24764 c 0,3.52957 -2.92094,4.75796 -4.14637,4.75796 -3.06816,0 -4.07795,-2.43013 -4.13023,-4.4931 0,-2.0058 1.37695,-4.63309 4.40948,-4.63309 2.3946,0 3.86712,1.99855 3.86712,4.36823 z"
         style="font-style:normal;font-variant:normal;font-weight:bold;font-stretch:normal;font-size:25.4px;line-height:1.25;font-family:'CHICKEN Pie Height';-inkscape-font-specification:'CHICKEN Pie Height Bold';letter-spacing:0px;word-spacing:0px;display:inline;fill:#2a7fff;stroke-width:0.595354"
         id="path943" />
      <path
         inkscape:export-ydpi="98.017883"
         inkscape:export-xdpi="98.017883"
         inkscape:export-filename="D:\Pictures\Graphic Design\Gadoop\client\bytes\res\404.png"
         id="path945"
         d="m 570.89187,45.869516 1.71021,-3.762489"
         style="display:inline;fill:none;stroke:#1a1a1a;stroke-width:1.19071;stroke-linecap:round;stroke-linejoin:miter;stroke-miterlimit:4;stroke-dasharray:none;stroke-opacity:1" />
      <path
         inkscape:export-ydpi="98.017883"
         inkscape:export-xdpi="98.017883"
         inkscape:export-filename="D:\Pictures\Graphic Design\Gadoop\client\bytes\res\404.png"
         id="path947"
         d="m 570.89187,45.869516 c 0,0 3.26257,0.157513 5.2359,-2.394393"
         style="display:inline;fill:none;stroke:#1a1a1a;stroke-width:1.19071;stroke-linecap:round;stroke-linejoin:round;stroke-miterlimit:4;stroke-dasharray:none;stroke-opacity:1" />
      <path
         inkscape:export-ydpi="98.017883"
         inkscape:export-xdpi="98.017883"
         inkscape:export-filename="D:\Pictures\Graphic Design\Gadoop\client\bytes\res\404.png"
         style="display:inline;fill:none;stroke:#1a1a1a;stroke-width:1.19071;stroke-linecap:round;stroke-linejoin:round;stroke-miterlimit:4;stroke-dasharray:none;stroke-opacity:1"
         d="m 460.79253,44.817111 c 0,0 1.97333,-1.105265 1.86806,-4.893872"
         id="path949"
         sodipodi:nodetypes="cc" />
      <path
         inkscape:export-ydpi="98.017883"
         inkscape:export-xdpi="98.017883"
         inkscape:export-filename="D:\Pictures\Graphic Design\Gadoop\client\bytes\res\404.png"
         style="display:inline;fill:none;stroke:#1a1a1a;stroke-width:1.19071;stroke-linecap:round;stroke-linejoin:miter;stroke-miterlimit:4;stroke-dasharray:none;stroke-opacity:1"
         d="m 460.79253,44.817111 -1.71041,-3.76249"
         id="path951" />
      <path
         inkscape:export-ydpi="98.017883"
         inkscape:export-xdpi="98.017883"
         inkscape:export-filename="D:\Pictures\Graphic Design\Gadoop\client\bytes\res\404.png"
         style="display:inline;fill:none;stroke:#1a1a1a;stroke-width:1.19071;stroke-linecap:round;stroke-linejoin:round;stroke-miterlimit:4;stroke-dasharray:none;stroke-opacity:1"
         d="m 460.79253,44.817111 c 0,0 -3.26257,0.157512 -5.23589,-2.394394"
         id="path953" />
      <path
         inkscape:export-ydpi="98.017883"
         inkscape:export-xdpi="98.017883"
         inkscape:export-filename="D:\Pictures\Graphic Design\Gadoop\client\bytes\res\404.png"
         id="path955"
         style="font-style:normal;font-variant:normal;font-weight:bold;font-stretch:normal;font-size:25.4px;line-height:1.25;font-family:'CHICKEN Pie Height';-inkscape-font-specification:'CHICKEN Pie Height Bold';letter-spacing:0px;word-spacing:0px;display:inline;fill:#1a1a1a;stroke-width:0.595354"
         d="m 582.74714,181.20058 c 2.97668,0.22279 4.61389,1.68387 4.91162,4.38161 0.0388,1.02316 0.0562,2.26043 0.0562,3.71171 0,2.04643 -0.047,5.0418 -0.13957,8.9859 -0.0919,3.92561 -0.25107,5.5815 -0.47447,10.6235 -0.20481,5.02322 -0.40932,8.8839 -0.61383,11.58164 -0.0225,0.83723 -0.37145,1.72083 -1.06044,2.65108 -0.68847,0.91146 -2.03744,1.4232 -4.04671,1.53479 h -0.22278 c -0.63252,0 -1.30252,-0.0919 -2.00927,-0.27894 -0.70695,-0.18685 -1.3115,-0.57677 -1.81404,-1.17213 -0.52083,-0.68837 -0.78149,-1.47915 -0.78149,-2.37224 v -0.25107 c 0.0898,-1.8118 0.16428,-4.14687 0.21829,-7.00542 0,-1.55011 -1.44862,-1.87888 -3.8278,-1.71531 -3.44809,0.31978 -4.25949,0.73922 -4.27777,2.49792 -0.0306,2.92104 -0.0878,5.45102 -0.17766,7.59027 -0.26056,2.8464 -1.48854,4.45573 -3.68404,4.82799 h -1.4232 c -1.11628,0 -2.13026,-0.26985 -3.04172,-0.80946 -1.39543,-0.94884 -2.09309,-2.18601 -2.09309,-3.71162 0,-12.53741 -0.36369,-25.13455 -0.44558,-38.01196 0.0225,-1.8604 0.47386,-3.32107 1.36735,-4.3815 0.89309,-1.06043 2.12107,-1.59065 3.68384,-1.59065 h 0.53001 c 1.06054,0 1.95362,0.18675 2.67926,0.5583 0.72554,0.37195 1.27434,0.81865 1.6466,1.33947 0.79987,1.02327 1.20001,2.18611 1.20001,3.48842 0,0.14846 0,0.30671 -0.0276,0.47436 -0.11027,1.56278 -0.17541,4.00924 -0.19573,7.3395 -0.0225,3.31158 -0.0276,6.86534 -0.0276,10.66068 0.0694,3.7598 0.97845,3.76746 3.91357,3.76746 3.26512,0 4.34485,-0.53991 4.34536,-5.85116 0,-1.35826 0,-3.36753 -0.0276,-6.028 0,-2.66027 -0.0388,-5.18137 -0.11272,-7.56269 v -0.0837 c 0,-1.32079 0.37186,-2.44636 1.11598,-3.37661 0.96762,-1.2095 2.51191,-1.81415 4.63277,-1.81415 z"
         sodipodi:nodetypes="ccssccccsscsccccccscccsssscscccccccsscc" />
    </g>
  </g>
</svg>
